<svg xmlns="http://www.w3.org/2000/svg" width="1100" height="1205" viewBox="0 0 1100 1204.58"><rect width="100%" height="100%" fill="#fff"/><g transform="scale(97.2801) translate(5.6538,5.6538)"><path fill="#696969" stroke="none" stroke-width="0" d="M0.7385,-2.0129 L0.8114,-1.9847 L0.8832,-1.9538 L0.9539,-1.9203 L1.0233,-1.8842 L1.0913,-1.8456 L1.1579,-1.8046 L1.2229,-1.7612 L1.2863,-1.7154 L1.3480,-1.6674 L1.4079,-1.6171 L1.4660,-1.5647 L1.5221,-1.5102 L1.5761,-1.4537 L1.6281,-1.3952 L1.6779,-1.3349 L1.7254,-1.2728 L1.7707,-1.2091 L1.8136,-1.1437 L1.8541,-1.0768 L1.8874,-1.0961 L1.9871,-0.7290 L1.7733,-1.0298 L1.8066,-1.0492 L1.7671,-1.1144 L1.7253,-1.1781 L1.6812,-1.2402 L1.6348,-1.3007 L1.5863,-1.3594 L1.5357,-1.4164 L1.4830,-1.4714 L1.4284,-1.5245 L1.3718,-1.5756 L1.3135,-1.6246 L1.2533,-1.6714 L1.1916,-1.7160 L1.1282,-1.7583 L1.0633,-1.7983 L0.9970,-1.8359 L0.9294,-1.8710 L0.8606,-1.9037 L0.7906,-1.9338 L0.7195,-1.9613 Z" opacity="1"/><path fill="#696969" stroke="none" stroke-width="0" d="M2.0129,0.7385 L1.9847,0.8114 L1.9538,0.8832 L1.9203,0.9539 L1.8842,1.0233 L1.8456,1.0913 L1.8046,1.1579 L1.7612,1.2229 L1.7154,1.2863 L1.6674,1.3480 L1.6171,1.4079 L1.5647,1.4660 L1.5102,1.5221 L1.4537,1.5761 L1.3952,1.6281 L1.3349,1.6779 L1.2728,1.7254 L1.2091,1.7707 L1.1437,1.8136 L1.0768,1.8541 L1.0961,1.8874 L0.7290,1.9871 L1.0298,1.7733 L1.0492,1.8066 L1.1144,1.7671 L1.1781,1.7253 L1.2402,1.6812 L1.3007,1.6348 L1.3594,1.5863 L1.4164,1.5357 L1.4714,1.4830 L1.5245,1.4284 L1.5756,1.3718 L1.6246,1.3135 L1.6714,1.2533 L1.7160,1.1916 L1.7583,1.1282 L1.7983,1.0633 L1.8359,0.9970 L1.8710,0.9294 L1.9037,0.8606 L1.9338,0.7906 L1.9613,0.7195 Z" opacity="1"/><path fill="#696969" stroke="none" stroke-width="0" d="M-0.7385,2.0129 L-0.8114,1.9847 L-0.8832,1.9538 L-0.9539,1.9203 L-1.0233,1.8842 L-1.0913,1.8456 L-1.1579,1.8046 L-1.2229,1.7612 L-1.2863,1.7154 L-1.3480,1.6674 L-1.4079,1.6171 L-1.4660,1.5647 L-1.5221,1.5102 L-1.5761,1.4537 L-1.6281,1.3952 L-1.6779,1.3349 L-1.7254,1.2728 L-1.7707,1.2091 L-1.8136,1.1437 L-1.8541,1.0768 L-1.8874,1.0961 L-1.9871,0.7290 L-1.7733,1.0298 L-1.8066,1.0492 L-1.7671,1.1144 L-1.7253,1.1781 L-1.6812,1.2402 L-1.6348,1.3007 L-1.5863,1.3594 L-1.5357,1.4164 L-1.4830,1.4714 L-1.4284,1.5245 L-1.3718,1.5756 L-1.3135,1.6246 L-1.2533,1.6714 L-1.1916,1.7160 L-1.1282,1.7583 L-1.0633,1.7983 L-0.9970,1.8359 L-0.9294,1.8710 L-0.8606,1.9037 L-0.7906,1.9338 L-0.7195,1.9613 Z" opacity="1"/><path fill="#696969" stroke="none" stroke-width="0" d="M-2.0129,-0.7385 L-1.9847,-0.8114 L-1.9538,-0.8832 L-1.9203,-0.9539 L-1.8842,-1.0233 L-1.8456,-1.0913 L-1.8046,-1.1579 L-1.7612,-1.2229 L-1.7154,-1.2863 L-1.6674,-1.3480 L-1.6171,-1.4079 L-1.5647,-1.4660 L-1.5102,-1.5221 L-1.4537,-1.5761 L-1.3952,-1.6281 L-1.3349,-1.6779 L-1.2728,-1.7254 L-1.2091,-1.7707 L-1.1437,-1.8136 L-1.0768,-1.8541 L-1.0961,-1.8874 L-0.7290,-1.9871 L-1.0298,-1.7733 L-1.0492,-1.8066 L-1.1144,-1.7671 L-1.1781,-1.7253 L-1.2402,-1.6812 L-1.3007,-1.6348 L-1.3594,-1.5863 L-1.4164,-1.5357 L-1.4714,-1.4830 L-1.5245,-1.4284 L-1.5756,-1.3718 L-1.6246,-1.3135 L-1.6714,-1.2533 L-1.7160,-1.1916 L-1.7583,-1.1282 L-1.7983,-1.0633 L-1.8359,-0.9970 L-1.8710,-0.9294 L-1.9037,-0.8606 L-1.9338,-0.7906 L-1.9613,-0.7195 Z" opacity="1"/><path fill="#696969" d="M3.6489,-1.0544 L3.6083,-1.1859 L3.5629,-1.3159 L3.5129,-1.4441 L3.4583,-1.5705 L3.3991,-1.6948 L3.3354,-1.8168 L3.2674,-1.9365 L3.1951,-2.0537 L3.1185,-2.1681 L3.0379,-2.2797 L2.9533,-2.3883 L2.8648,-2.4937 L2.7726,-2.5959 L2.6767,-2.6947 L2.5773,-2.7899 L2.4745,-2.8815 L2.3684,-2.9693 L2.2593,-3.0531 L2.1471,-3.1330 L2.0322,-3.2088 L1.9146,-3.2803 L1.7945,-3.3475 L1.6720,-3.4104 L1.6855,-3.4380 L1.0483,-3.6277 L1.6390,-3.3432 L1.6526,-3.3708 L1.7737,-3.3087 L1.8924,-3.2423 L2.0087,-3.1716 L2.1223,-3.0967 L2.2331,-3.0178 L2.3410,-2.9349 L2.4458,-2.8481 L2.5474,-2.7576 L2.6457,-2.6635 L2.7405,-2.5658 L2.8316,-2.4648 L2.9191,-2.3606 L3.0027,-2.2533 L3.0824,-2.1430 L3.1581,-2.0299 L3.2295,-1.9141 L3.2968,-1.7958 L3.3597,-1.6751 L3.4182,-1.5523 L3.4722,-1.4274 L3.5217,-1.3006 L3.5665,-1.1722 L3.6066,-1.0421 Z" opacity=".9"/><text x="2.911" y="-2.911" fill="#444" font-family="Helvetica, Arial, sans-serif" font-size=".113" font-weight="normal" text-anchor="middle">shunt 2551_0</text><path fill="none" stroke="#d3d3d3" stroke-width=".026" d="M1.4967,-1.4967 Q2.1339,-1.3920 2.7720,-1.4913"/><path fill="#d3d3d3" d="M2.7720,-1.4913 L2.6889,-1.4401 L2.6772,-1.5148 Z"/><circle cx="3.934" cy="-1.486" r="1.051" fill="#f0f" fill-opacity=".2" stroke="none"/><svg width="2.213" height="2.213" x="2.827" y="-2.593" preserveAspectRatio="xMidYMid meet" viewBox="0 0 100 100"><title>- Open Babel Depiction</title><g transform="translate(0,0)"><svg width="100" height="100" x="0" y="0" stroke="#4C4C4C" stroke-linecap="round" stroke-width="2" font-family="sans-serif" viewBox="0 0 208.876 211.249"><line x1="68.7" x2="89.8" y1="45.8" y2="62.6" stroke="#4C4C4C" stroke-width="2" opacity="1"/><line x1="64.9" x2="86" y1="50.5" y2="67.3" stroke="#4C4C4C" stroke-width="2" opacity="1"/><line x1="143.9" x2="155.7" y1="135.2" y2="159.5" stroke="#4C4C4C" stroke-width="2" opacity="1"/><line x1="103.9" x2="92.2" y1="135.2" y2="159.5" stroke="#4C4C4C" stroke-width="2" opacity="1"/><line x1="79" x2="52.7" y1="103.9" y2="109.9" stroke="#4C4C4C" stroke-width="2" opacity="1"/><line x1="160" x2="166" y1="64.9" y2="91.3" stroke="#4C4C4C" stroke-width="2" opacity="1"/><line x1="160.8" x2="143.9" y1="114.1" y2="135.2" stroke="#4C4C4C" stroke-width="2" opacity="1"/><line x1="143.9" x2="103.9" y1="135.2" y2="135.2" stroke="#4C4C4C" stroke-width="2" opacity="1"/><line x1="103.9" x2="79" y1="135.2" y2="103.9" stroke="#4C4C4C" stroke-width="2" opacity="1"/><line x1="79" x2="87.9" y1="103.9" y2="64.9" stroke="#4C4C4C" stroke-width="2" opacity="1"/><line x1="87.9" x2="123.9" y1="64.9" y2="47.6" stroke="#4C4C4C" stroke-width="2" opacity="1"/><line x1="123.9" x2="160" y1="47.6" y2="64.9" stroke="#4C4C4C" stroke-width="2" opacity="1"/><text x="50.625" y="48" fill="#FF0C0C" stroke-width="0" font-size="16" font-weight="bold">O</text><text x="162.876" y="111.937" fill="#FF0C0C" stroke-width="0" font-size="16" font-weight="bold">O</text><text x="155.292" y="179.249" fill="#FF0C0C" stroke-width="0" font-size="16" font-weight="bold">OH</text><text x="68.581" y="179.249" fill="#FF0C0C" stroke-width="0" font-size="16" font-weight="bold">HO</text><text x="22" y="120.838" fill="#FF0C0C" stroke-width="0" font-size="16" font-weight="bold">HO</text></svg></g></svg><path fill="none" stroke="#d3d3d3" stroke-width=".026" d="M-1.4864,3.9336 Q-1.3125,2.8164 -1.4958,1.7007"/><path fill="#d3d3d3" d="M-1.4958,1.7007 L-1.4439,1.7834 L-1.5185,1.7956 Z"/><circle cx="-1.486" cy="3.934" r="1.051" fill="#f0f" fill-opacity=".2" stroke="none"/><svg width="2.213" height="2.213" x="-2.593" y="2.827" preserveAspectRatio="xMidYMid meet" viewBox="0 0 100 100"><title>- Open Babel Depiction</title><g transform="translate(0,0)"><svg width="100" height="100" x="0" y="0" stroke="#4C4C4C" stroke-linecap="round" stroke-width="2" font-family="sans-serif" viewBox="0 0 218.564 240"><line x1="143.9" x2="143.9" y1="127" y2="100" stroke="#4C4C4C" stroke-width="2" opacity="1"/><line x1="142.4" x2="165.8" y1="97.4" y2="83.9" stroke="#4C4C4C" stroke-width="2" opacity="1"/><line x1="145.4" x2="168.8" y1="102.6" y2="89.1" stroke="#4C4C4C" stroke-width="2" opacity="1"/><line x1="143.9" x2="109.3" y1="100" y2="80" stroke="#4C4C4C" stroke-width="2" opacity="1"/><line x1="109.3" x2="109.3" y1="80" y2="53" stroke="#4C4C4C" stroke-width="2" opacity="1"/><line x1="109.3" x2="74.6" y1="80" y2="100" stroke="#4C4C4C" stroke-width="2" opacity="1"/><line x1="74.6" x2="51.3" y1="100" y2="86.5" stroke="#4C4C4C" stroke-width="2" opacity="1"/><line x1="74.6" x2="74.6" y1="100" y2="140" stroke="#4C4C4C" stroke-width="2" opacity="1"/><line x1="74.6" x2="51.3" y1="140" y2="153.5" stroke="#4C4C4C" stroke-width="2" opacity="1"/><line x1="74.6" x2="109.3" y1="140" y2="160" stroke="#4C4C4C" stroke-width="2" opacity="1"/><line x1="112.3" x2="112.3" y1="160" y2="187" stroke="#4C4C4C" stroke-width="2" opacity="1"/><line x1="106.3" x2="106.3" y1="160" y2="187" stroke="#4C4C4C" stroke-width="2" opacity="1"/><text x="139.923" y="148" fill="#666" stroke-width="0" font-size="16" font-weight="bold">CH</text><text x="163.923" y="151.68" fill="#666" stroke-width="0" font-size="13" font-weight="bold">3</text><text x="172.564" y="88" fill="#FF0C0C" stroke-width="0" font-size="16" font-weight="bold">O</text><text x="103.282" y="48" fill="#FF0C0C" stroke-width="0" font-size="16" font-weight="bold">OH</text><text x="22" y="88" fill="#FF0C0C" stroke-width="0" font-size="16" font-weight="bold">HO</text><text x="22" y="168" fill="#FF0C0C" stroke-width="0" font-size="16" font-weight="bold">HO</text><text x="103.282" y="208" fill="#FF0C0C" stroke-width="0" font-size="16" font-weight="bold">O</text></svg></g></svg><path fill="none" stroke="#d3d3d3" stroke-width=".026" d="M-1.4967,-1.4967 Q-1.3920,-2.1339 -1.4913,-2.7720"/><path fill="#d3d3d3" d="M-1.4913,-2.7720 L-1.4401,-2.6889 L-1.5148,-2.6772 Z"/><circle cx="-1.486" cy="-3.934" r="1.051" fill="#f0f" fill-opacity=".2" stroke="none"/><svg width="2.213" height="2.213" x="-2.593" y="-5.04" preserveAspectRatio="xMidYMid meet" viewBox="0 0 100 100"><title>- Open Babel Depiction</title><g transform="translate(0,0)"><svg width="100" height="100" x="0" y="0" stroke="#4C4C4C" stroke-linecap="round" stroke-width="2" font-family="sans-serif" viewBox="0 0 218.564 200"><line x1="131.2" x2="107.8" y1="56.1" y2="42.6" stroke="#4C4C4C" stroke-width="2" opacity="1"/><line x1="134.2" x2="110.8" y1="50.9" y2="37.4" stroke="#4C4C4C" stroke-width="2" opacity="1"/><line x1="109.3" x2="74.6" y1="40" y2="60" stroke="#4C4C4C" stroke-width="2" opacity="1"/><line x1="74.6" x2="74.6" y1="60" y2="100" stroke="#4C4C4C" stroke-width="2" opacity="1"/><line x1="74.6" x2="51.3" y1="100" y2="113.5" stroke="#4C4C4C" stroke-width="2" opacity="1"/><line x1="74.6" x2="109.3" y1="100" y2="120" stroke="#4C4C4C" stroke-width="2" opacity="1"/><line x1="112.3" x2="112.3" y1="120" y2="147" stroke="#4C4C4C" stroke-width="2" opacity="1"/><line x1="106.3" x2="106.3" y1="120" y2="147" stroke="#4C4C4C" stroke-width="2" opacity="1"/><line x1="109.3" x2="143.9" y1="120" y2="100" stroke="#4C4C4C" stroke-width="2" opacity="1"/><line x1="143.9" x2="178.6" y1="100" y2="120" stroke="#4C4C4C" stroke-width="2" opacity="1"/><line x1="178.6" x2="178.6" y1="120" y2="147" stroke="#4C4C4C" stroke-width="2" opacity="1"/><text x="137.923" y="68" fill="#FF0C0C" stroke-width="0" font-size="16" font-weight="bold">O</text><text x="22" y="128" fill="#FF0C0C" stroke-width="0" font-size="16" font-weight="bold">HO</text><text x="103.282" y="168" fill="#FF0C0C" stroke-width="0" font-size="16" font-weight="bold">O</text><text x="172.564" y="168" fill="#FF0C0C" stroke-width="0" font-size="16" font-weight="bold">OH</text></svg></g></svg><circle cx="0" cy="-2.117" r="1.051" fill="gold" fill-opacity=".4" stroke="none"/><svg width="2.213" height="2.213" x="-1.106" y="-3.223" preserveAspectRatio="xMidYMid meet" viewBox="0 0 100 100"><title>- Open Babel Depiction</title><g transform="translate(0,0)"><svg width="100" height="100" x="0" y="0" stroke="#4C4C4C" stroke-linecap="round" stroke-width="2" font-family="sans-serif" viewBox="0 0 208.876 243.664"><line x1="123.9" x2="123.9" y1="53" y2="80" stroke="#4C4C4C" stroke-width="2" opacity="1"/><line x1="143.9" x2="155.7" y1="167.6" y2="192" stroke="#4C4C4C" stroke-width="2" opacity="1"/><line x1="103.9" x2="92.2" y1="167.6" y2="192" stroke="#4C4C4C" stroke-width="2" opacity="1"/><line x1="79" x2="52.7" y1="136.4" y2="142.4" stroke="#4C4C4C" stroke-width="2" opacity="1"/><line x1="87.9" x2="66.8" y1="97.4" y2="80.5" stroke="#4C4C4C" stroke-width="2" opacity="1"/><line x1="160.8" x2="143.9" y1="146.5" y2="167.6" stroke="#4C4C4C" stroke-width="2" opacity="1"/><line x1="143.9" x2="103.9" y1="167.6" y2="167.6" stroke="#4C4C4C" stroke-width="2" opacity="1"/><line x1="103.9" x2="79" y1="167.6" y2="136.4" stroke="#4C4C4C" stroke-width="2" opacity="1"/><line x1="79" x2="87.9" y1="136.4" y2="97.4" stroke="#4C4C4C" stroke-width="2" opacity="1"/><line x1="87.9" x2="123.9" y1="97.4" y2="80" stroke="#4C4C4C" stroke-width="2" opacity="1"/><line x1="123.9" x2="160" y1="80" y2="97.4" stroke="#4C4C4C" stroke-width="2" opacity="1"/><line x1="160" x2="166" y1="97.4" y2="123.7" stroke="#4C4C4C" stroke-width="2" opacity="1"/><text x="117.937" y="48" fill="#FF0C0C" stroke-width="0" font-size="16" font-weight="bold">OH</text><text x="162.876" y="144.352" fill="#FF0C0C" stroke-width="0" font-size="16" font-weight="bold">O</text><text x="155.292" y="211.664" fill="#FF0C0C" stroke-width="0" font-size="16" font-weight="bold">OH</text><text x="68.581" y="211.664" fill="#FF0C0C" stroke-width="0" font-size="16" font-weight="bold">HO</text><text x="22" y="153.253" fill="#FF0C0C" stroke-width="0" font-size="16" font-weight="bold">HO</text><text x="38.625" y="80.416" fill="#FF0C0C" stroke-width="0" font-size="16" font-weight="bold">HO</text></svg></g></svg><path fill="#b8860b" stroke="#7a5c10" stroke-width=".006" d="M1.5820,-1.4967 L1.4967,-1.5820 L1.4113,-1.4967 L1.4967,-1.4113 Z"/><text x="1.182" y="-1.182" fill="#222" font-family="Helvetica, Arial, sans-serif" font-size=".125" font-weight="normal" text-anchor="middle">r:250_0</text><svg width="2.213" height="2.213" x="1.01" y="-1.106" preserveAspectRatio="xMidYMid meet" viewBox="0 0 100 100"><title>- Open Babel Depiction</title><g transform="translate(0,0)"><svg width="100" height="100" x="0" y="0" stroke="#4C4C4C" stroke-linecap="round" stroke-width="2" font-family="sans-serif" viewBox="0 0 247.873 211.249"><line x1="152.9" x2="141.2" y1="160.8" y2="136.5" stroke="#4C4C4C" stroke-width="2" opacity="1"/><line x1="158.4" x2="146.6" y1="158.2" y2="133.9" stroke="#4C4C4C" stroke-width="2" opacity="1"/><line x1="79" x2="52.7" y1="103.9" y2="109.9" stroke="#4C4C4C" stroke-width="2" opacity="1"/><line x1="87.9" x2="66.8" y1="64.9" y2="48.1" stroke="#4C4C4C" stroke-width="2" opacity="1"/><line x1="168.9" x2="195.2" y1="103.9" y2="109.9" stroke="#4C4C4C" stroke-width="2" opacity="1"/><line x1="79" x2="87.9" y1="103.9" y2="64.9" stroke="#4C4C4C" stroke-width="2" opacity="1"/><line x1="87.9" x2="112.2" y1="64.9" y2="53.2" stroke="#4C4C4C" stroke-width="2" opacity="1"/><line x1="135.6" x2="160" y1="53.2" y2="64.9" stroke="#4C4C4C" stroke-width="2" opacity="1"/><line x1="160" x2="168.9" y1="64.9" y2="103.9" stroke="#4C4C4C" stroke-width="2" opacity="1"/><line x1="168.9" x2="143.9" y1="103.9" y2="135.2" stroke="#4C4C4C" stroke-width="2" opacity="1"/><line x1="143.9" x2="103.9" y1="135.2" y2="135.2" stroke="#4C4C4C" stroke-width="2" opacity="1"/><line x1="103.9" x2="79" y1="135.2" y2="103.9" stroke="#4C4C4C" stroke-width="2" opacity="1"/><text x="155.292" y="179.249" fill="#FF0C0C" stroke-width="0" font-size="16" font-weight="bold">O</text><text x="22" y="120.838" fill="#FF0C0C" stroke-width="0" font-size="16" font-weight="bold">HO</text><text x="38.625" y="48" fill="#FF0C0C" stroke-width="0" font-size="16" font-weight="bold">HO</text><text x="117.937" y="55.584" fill="#FF0C0C" stroke-width="0" font-size="16" font-weight="bold">O</text><text x="201.873" y="120.838" fill="#FF0C0C" stroke-width="0" font-size="16" font-weight="bold">OH</text></svg></g></svg><path fill="#b8860b" stroke="#7a5c10" stroke-width=".006" d="M1.4967,1.5820 L1.5820,1.4967 L1.4967,1.4113 L1.4113,1.4967 Z"/><text x="1.182" y="1.182" fill="#222" font-family="Helvetica, Arial, sans-serif" font-size=".125" font-weight="normal" text-anchor="middle">r:2756_0</text><svg width="2.213" height="2.213" x="-1.106" y="1.01" preserveAspectRatio="xMidYMid meet" viewBox="0 0 100 100"><title>- Open Babel Depiction</title><g transform="translate(0,0)"><svg width="100" height="100" x="0" y="0" stroke="#4C4C4C" stroke-linecap="round" stroke-width="2" font-family="sans-serif" viewBox="0 0 253.205 200"><line x1="210.2" x2="210.2" y1="127" y2="100" stroke="#4C4C4C" stroke-width="2" opacity="1"/><line x1="216.2" x2="216.2" y1="127" y2="100" stroke="#4C4C4C" stroke-width="2" opacity="1"/><line x1="213.2" x2="178.6" y1="100" y2="80" stroke="#4C4C4C" stroke-width="2" opacity="1"/><line x1="178.6" x2="178.6" y1="80" y2="53" stroke="#4C4C4C" stroke-width="2" opacity="1"/><line x1="178.6" x2="143.9" y1="80" y2="100" stroke="#4C4C4C" stroke-width="2" opacity="1"/><line x1="143.9" x2="109.3" y1="100" y2="80" stroke="#4C4C4C" stroke-width="2" opacity="1"/><line x1="106.3" x2="106.3" y1="80" y2="53" stroke="#4C4C4C" stroke-width="2" opacity="1"/><line x1="112.3" x2="112.3" y1="80" y2="53" stroke="#4C4C4C" stroke-width="2" opacity="1"/><line x1="109.3" x2="74.6" y1="80" y2="100" stroke="#4C4C4C" stroke-width="2" opacity="1"/><line x1="74.6" x2="51.3" y1="100" y2="86.5" stroke="#4C4C4C" stroke-width="2" opacity="1"/><line x1="74.6" x2="74.6" y1="100" y2="140" stroke="#4C4C4C" stroke-width="2" opacity="1"/><line x1="74.6" x2="51.3" y1="140" y2="153.5" stroke="#4C4C4C" stroke-width="2" opacity="1"/><text x="207.205" y="148" fill="#FF0C0C" stroke-width="0" font-size="16" font-weight="bold">O</text><text x="172.564" y="48" fill="#FF0C0C" stroke-width="0" font-size="16" font-weight="bold">OH</text><text x="103.282" y="48" fill="#FF0C0C" stroke-width="0" font-size="16" font-weight="bold">O</text><text x="22" y="88" fill="#FF0C0C" stroke-width="0" font-size="16" font-weight="bold">HO</text><text x="22" y="168" fill="#FF0C0C" stroke-width="0" font-size="16" font-weight="bold">HO</text></svg></g></svg><path fill="#b8860b" stroke="#7a5c10" stroke-width=".006" d="M-1.5820,1.4967 L-1.4967,1.5820 L-1.4113,1.4967 L-1.4967,1.4113 Z"/><text x="-1.182" y="1.182" fill="#222" font-family="Helvetica, Arial, sans-serif" font-size=".125" font-weight="normal" text-anchor="middle">r:271_0</text><svg width="2.213" height="2.213" x="-3.223" y="-1.106" preserveAspectRatio="xMidYMid meet" viewBox="0 0 100 100"><title>- Open Babel Depiction</title><g transform="translate(0,0)"><svg width="100" height="100" x="0" y="0" stroke="#4C4C4C" stroke-linecap="round" stroke-width="2" font-family="sans-serif" viewBox="0 0 253.205 240"><line x1="200.4" x2="177.1" y1="156.1" y2="142.6" stroke="#4C4C4C" stroke-width="2" opacity="1"/><line x1="203.4" x2="180.1" y1="150.9" y2="137.4" stroke="#4C4C4C" stroke-width="2" opacity="1"/><line x1="178.6" x2="143.9" y1="140" y2="160" stroke="#4C4C4C" stroke-width="2" opacity="1"/><line x1="143.9" x2="143.9" y1="160" y2="187" stroke="#4C4C4C" stroke-width="2" opacity="1"/><line x1="143.9" x2="109.3" y1="160" y2="140" stroke="#4C4C4C" stroke-width="2" opacity="1"/><line x1="109.3" x2="85.9" y1="140" y2="153.5" stroke="#4C4C4C" stroke-width="2" opacity="1"/><line x1="109.3" x2="109.3" y1="140" y2="100" stroke="#4C4C4C" stroke-width="2" opacity="1"/><line x1="109.3" x2="132.7" y1="100" y2="86.5" stroke="#4C4C4C" stroke-width="2" opacity="1"/><line x1="109.3" x2="74.6" y1="100" y2="80" stroke="#4C4C4C" stroke-width="2" opacity="1"/><line x1="74.6" x2="74.6" y1="80" y2="53" stroke="#4C4C4C" stroke-width="2" opacity="1"/><line x1="74.6" x2="40" y1="80" y2="100" stroke="#4C4C4C" stroke-width="2" opacity="1"/><line x1="40" x2="40" y1="100" y2="127" stroke="#4C4C4C" stroke-width="2" opacity="1"/><text x="207.205" y="168" fill="#FF0C0C" stroke-width="0" font-size="16" font-weight="bold">O</text><text x="137.923" y="208" fill="#FF0C0C" stroke-width="0" font-size="16" font-weight="bold">OH</text><text x="56.641" y="168" fill="#FF0C0C" stroke-width="0" font-size="16" font-weight="bold">HO</text><text x="137.923" y="88" fill="#FF0C0C" stroke-width="0" font-size="16" font-weight="bold">OH</text><text x="68.641" y="48" fill="#FF0C0C" stroke-width="0" font-size="16" font-weight="bold">OH</text><text x="34" y="148" fill="#FF0C0C" stroke-width="0" font-size="16" font-weight="bold">OH</text></svg></g></svg><path fill="#b8860b" stroke="#7a5c10" stroke-width=".006" d="M-1.4967,-1.5820 L-1.5820,-1.4967 L-1.4967,-1.4113 L-1.4113,-1.4967 Z"/><text x="-1.182" y="-1.182" fill="#222" font-family="Helvetica, Arial, sans-serif" font-size=".125" font-weight="normal" text-anchor="middle">r:31_0</text><text x="0" y="0" fill="#111" font-family="Helvetica, Arial, sans-serif" font-size=".26" font-weight="normal" text-anchor="middle">C6H12O6</text><text x="-5.354" y="5.809" fill="#222" font-family="Helvetica, Arial, sans-serif" font-size=".125" font-weight="normal" text-anchor="start">250_0 : Elimination + enol to keto</text><text x="-5.354" y="5.964" fill="#222" font-family="Helvetica, Arial, sans-serif" font-size=".125" font-weight="normal" text-anchor="start">2756_0 : Hemiacetal Formation for 7 membered rings, inverse</text><text x="-5.354" y="6.119" fill="#222" font-family="Helvetica, Arial, sans-serif" font-size=".125" font-weight="normal" text-anchor="start">271_0 : Hydration of C(=O)C</text><text x="-5.354" y="6.274" fill="#222" font-family="Helvetica, Arial, sans-serif" font-size=".125" font-weight="normal" text-anchor="start">31_0 : Hemiacetal Formation for 7 membered rings</text><text x="-5.354" y="6.429" fill="#222" font-family="Helvetica, Arial, sans-serif" font-size=".125" font-weight="normal" text-anchor="start">2551_0 : Hydration of C(=O)C</text></g></svg>